<svg xmlns="http://www.w3.org/2000/svg" viewBox="0 0 200 17.44"><defs><style>.cls-1{fill:#e53f30;}</style></defs><g id="Layer_2" data-name="Layer 2"><g id="Layer_1-2" data-name="Layer 1"><path class="cls-1" d="M30.08,13.4h9.36v4H23.49V0h6.59ZM72.32,4.07h.25l6.51,13.35H89.51V0H83.39l.36,13.41h-.24L76.92,0H66.56V17.44h6.09Zm31.93,0h6.65V0H91.34v4h6.33V17.44h6.58Zm13.85,0h.18l5.64,13.36H129l5.6-13.36h.2l-.59,13.36h5.89V0h-9.56l-4,10.89h-.2L122.13,0H112.8V17.44h5.88Zm55.79,0h.24l6.5,13.39h10.45V0H185l.37,13.39h-.25L178.48,0H168.13V17.44h6.12ZM15,3.52V7.05L12.27,9.81H6.58V3.52Zm1.16,10.12,4.91-4.86V0H0V17.44H6.58V13.63Zm40.44,3.8v-3H48v3H41.31V5.86L47.26,0H63.18V17.44Zm0-7.2V3.52H51.76L48.19,7.05v3.19ZM158,17.44v-3h-8.64v3h-6.65V5.86L148.69,0H164.6V17.44Zm0-7.2V3.52h-4.84l-3.57,3.53v3.19ZM197.15.74a2.32,2.32,0,0,0-1.73.71,2.3,2.3,0,0,0-.72,1.7,2.34,2.34,0,0,0,.71,1.72,2.47,2.47,0,0,0,3.47,0,2.31,2.31,0,0,0,.72-1.72,2.3,2.3,0,0,0-.72-1.7,2.35,2.35,0,0,0-1.73-.71M200,3.15a2.71,2.71,0,0,1-.83,2,2.9,2.9,0,0,1-4,0,2.7,2.7,0,0,1-.82-2,2.67,2.67,0,0,1,.83-2,2.77,2.77,0,0,1,2-.82,2.81,2.81,0,0,1,2,.82,2.69,2.69,0,0,1,.83,2m-2.1-.61a.46.46,0,0,0-.21-.45A1.4,1.4,0,0,0,197,2h-.47V3.09h.5a1.38,1.38,0,0,0,.52-.07.47.47,0,0,0,.33-.48m-.81-.94a2.31,2.31,0,0,1,.86.12.75.75,0,0,1,.48.77.67.67,0,0,1-.3.61,1.18,1.18,0,0,1-.46.15.76.76,0,0,1,.54.3.8.8,0,0,1,.17.48v.22a1.77,1.77,0,0,0,0,.23.28.28,0,0,0,0,.16l0,0h-.52V4.62l0-.1V4.27a.75.75,0,0,0-.29-.7,1.31,1.31,0,0,0-.62-.1h-.43V4.68H196V1.6Z"/></g></g></svg>